<svg id="Layer_1" data-name="Layer 1" xmlns="http://www.w3.org/2000/svg" viewBox="0 0 512 512"><defs><style>.cls-1{fill:#141f38;}</style></defs><title>heart-outline</title><path class="cls-1" d="M377.61,25.55h-.46c-53.57.19-99.77,32.3-121.16,78.63-21.38-46.32-67.58-78.44-121.16-78.63h-.46C57.76,25.55-2.39,92.71.07,170.84,4.68,317.23,131.13,419,204.52,466l.64.41,2.26,1.43,1.24.79,2,1.23,1.47.92,1.74,1.08,1.65,1,1.52.93,1.87,1.13,1.24.75,2.78,1.66.23.14a64.59,64.59,0,0,0,7.79,3.93h0l.69.28a64.3,64.3,0,0,0,48.84,0l.61-.24.1,0a64.63,64.63,0,0,0,7.7-3.89l.08,0,2.95-1.76,1.16-.7,2-1.19,1.45-.88,1.74-1.07,1.65-1,1.62-1,1.81-1.13,1.5-.95,2-1.27,1.23-.79q5.92-3.8,12.26-8.06l.41-.28,3.15-2.14.47-.32,3.28-2.26.28-.2c74.22-51.54,179.84-148,184.05-281.53C514.39,92.7,454.25,25.54,377.61,25.55Zm-96.9,426.93-1,.6-1.39.83-2.22,1.32-.25.15a39.18,39.18,0,0,1-39.72,0l-.25-.15-2.22-1.32-1.39-.84-1-.59C183.72,423.66,85.87,354.85,44.7,256h108l18,27L192,315l21.31-32L240,242.9l31.48,63,20.86,41.72,24-40L347.31,256h120l-.1.25C426,354.91,328.37,423.61,280.71,452.48ZM58.68,83.82C79.1,62.76,106,51.15,134.39,51.15h.37c41.72.15,80.19,25.17,98,63.75a25.61,25.61,0,0,0,46.5,0c17.81-38.58,56.27-63.61,98-63.75h.38c28.4,0,55.29,11.6,75.7,32.66a119,119,0,0,1,33,86.22,237,237,0,0,1-9.87,60.36H332.82l-38.41,64L243.2,192,192,268.8l-25.61-38.41H35.54A237,237,0,0,1,25.67,170,119,119,0,0,1,58.68,83.82Z"/></svg>